<svg width="482" height="486" viewBox="0 0 482 486" fill="none" xmlns="http://www.w3.org/2000/svg">
<circle cx="353.088" cy="48.0794" r="47.275" fill="#4FC4DD"/>
<path d="M109.817 146.35C108.222 136.881 112.469 127.381 120.589 122.255L199 72.7638C203.21 70.1063 208.26 69.1148 213.163 69.9831L302.515 85.8085C322.178 89.2911 338.437 103.103 345.053 121.944V121.944L368.605 180.792C371.286 187.492 377.368 192.227 384.52 193.184L430.352 199.318C433.986 199.805 437.461 201.116 440.512 203.151L442.715 204.621C450.222 209.63 453.566 218.962 450.95 227.599V227.599C449.522 232.313 446.443 236.355 442.277 238.984L439.275 240.878C434.09 244.15 428.028 245.754 421.903 245.476L356.268 242.497C348.991 242.167 342.469 237.906 339.243 231.374L318.667 189.717L286.466 241.961L331.207 277.443C339.32 283.877 343.542 294.039 342.376 304.327L331.767 397.933C331.037 404.366 328.156 410.364 323.589 414.953L322.046 416.503C310.484 428.122 291.296 426.746 281.51 413.596V413.596C276.869 407.359 275.161 399.415 276.83 391.822L287.736 342.199C290.303 330.516 285.685 318.424 275.983 311.428L237.868 283.939L196.133 333.094C190.718 339.472 182.885 343.299 174.525 343.651L85.366 347.402C75.9758 347.797 66.9983 343.521 61.3872 335.981L61.1825 335.706C54.902 327.267 53.9133 316.009 58.6268 306.605V306.605C63.3265 297.228 72.8969 291.287 83.3857 291.236L139.276 290.964C149.3 290.915 158.637 285.864 164.162 277.5L187.638 241.961L245.121 131.158L212.612 118.224L152.789 161.572C146.48 166.143 138.533 167.835 130.909 166.228L128.39 165.697C118.811 163.678 111.443 156.004 109.817 146.35V146.35Z" fill="#4FC4DD"/>
</svg>
