<svg width="405" height="423" viewBox="0 0 405 423" fill="none" xmlns="http://www.w3.org/2000/svg">
<path d="M239.259 42.5412C239.259 65.0547 222.699 83.0562 202.564 83.0562C182.429 83.0562 165.869 65.0547 165.869 42.5412C165.869 20.0276 182.429 2.02612 202.564 2.02612C222.699 2.02612 239.259 20.0276 239.259 42.5412Z" fill="#4FC4DD" stroke="#4FC4DD" stroke-width="3"/>
<rect x="1.62781" y="97.5146" width="168.88" height="39.015" rx="19.5075" fill="#4FC4DD" stroke="#4FC4DD" stroke-width="3"/>
<rect x="150.59" y="421.086" width="186.068" height="35.1955" rx="17.5977" transform="rotate(-90 150.59 421.086)" fill="#4FC4DD" stroke="#4FC4DD" stroke-width="3"/>
<path d="M228.536 326.888C221.635 319.297 221.635 306.99 228.536 299.399L291.275 230.386C298.176 222.795 309.365 222.795 316.265 230.386C323.166 237.977 323.166 250.284 316.265 257.875L253.526 326.888C246.625 334.479 235.437 334.479 228.536 326.888Z" fill="#4FC4DD" stroke="#4FC4DD" stroke-width="3"/>
<path d="M230.801 235.428C230.801 224.655 239.535 215.921 250.308 215.921H303.782C314.556 215.921 323.289 224.655 323.289 235.428C323.289 246.202 314.556 254.936 303.782 254.936H250.308C239.535 254.936 230.801 246.202 230.801 235.428Z" fill="#4FC4DD" stroke="#4FC4DD" stroke-width="3"/>
<rect x="234.62" y="97.5146" width="168.88" height="39.015" rx="19.5075" fill="#4FC4DD" stroke="#4FC4DD" stroke-width="3"/>
<rect x="150.59" y="97.5146" width="107.767" height="157.421" fill="#4FC4DD" stroke="#4FC4DD" stroke-width="3"/>
<rect x="160.549" y="229.699" width="15.2782" height="53.4737" fill="#4FC4DD"/>
<rect x="137.632" y="126.571" width="19.0977" height="34.3759" transform="rotate(-90 137.632 126.571)" fill="#4FC4DD"/>
<rect x="240.76" y="126.571" width="19.0977" height="30.5564" transform="rotate(-90 240.76 126.571)" fill="#4FC4DD"/>
<rect x="236.94" y="244.977" width="19.0977" height="30.5564" transform="rotate(-90 236.94 244.977)" fill="#4FC4DD"/>
<rect x="284.047" y="278.253" width="17.3684" height="52.2366" rx="8.68422" transform="rotate(-137.138 284.047 278.253)" fill="#4FC4DD"/>
<path d="M313.629 245.792C310.229 247.576 305.364 245.002 302.762 240.044C300.161 235.086 299.362 228.441 302.762 226.657C306.162 224.873 312.474 228.626 315.075 233.584C317.676 238.543 317.029 244.008 313.629 245.792Z" fill="#4FC4DD"/>
</svg>
