<svg width="377" height="383" viewBox="0 0 377 383" fill="none" xmlns="http://www.w3.org/2000/svg">
<path d="M292.771 103.727L269.053 99.3985H245.335L236.71 103.727L230.241 110.221L225.929 118.878L223.773 129.7V138.358L228.085 151.344L238.866 166.495L251.803 179.482L264.74 194.633L273.365 209.783L277.678 220.605V233.592V246.578L273.365 259.565L266.897 272.551L251.803 292.031L241.022 309.346L236.71 326.662V346.141L247.491 367.785L258.272 374.279L279.834 380.772H290.615L301.396 374.279L310.021 363.457L316.489 352.635L320.802 333.155V322.333L322.958 305.018L327.27 285.538L333.739 268.223C335.895 263.172 340.639 252.206 342.364 248.743C344.088 245.28 347.395 237.199 348.832 233.592L353.145 216.277L357.457 201.126L359.613 183.811V172.988L355.301 153.509L348.832 138.358L338.051 127.536L325.114 116.714L310.021 110.221L292.771 103.727Z" fill="#4FC4DD"/>
<path d="M241.022 51.7814L234.554 60.4391H232.397H223.773L215.148 56.1103L208.679 45.2882V14.9865L212.992 8.49323L219.46 2H225.929L232.397 4.16441L236.71 8.49323L243.178 19.3153V34.4662L241.022 51.7814Z" fill="#4FC4DD"/>
<path d="M290.615 17.1509L277.678 8.49323H273.365L264.74 19.3153V32.3018V43.1238L271.209 51.7814L279.834 58.2747L288.459 53.9459L294.927 40.9594V27.9729L290.615 17.1509Z" fill="#4FC4DD"/>
<path d="M325.114 32.3018L316.489 25.8085L307.864 27.9729L303.552 34.4662L305.708 45.2882L310.021 53.9459L316.489 58.2747L320.802 53.9459L325.114 47.4526V32.3018Z" fill="#4FC4DD"/>
<path d="M353.145 56.1103L346.676 49.617L335.895 51.7814L333.739 64.7679L335.895 73.4256L344.52 75.59L350.988 66.9323L353.145 56.1103Z" fill="#4FC4DD"/>
<path d="M374.706 82.0832L370.394 73.4256L363.925 71.2611L357.457 86.412L359.613 95.0697L370.394 99.3985L374.706 82.0832Z" fill="#4FC4DD"/>
<path d="M292.771 103.727L269.053 99.3985H245.335L236.71 103.727L230.241 110.221L225.929 118.878L223.773 129.7V138.358L228.085 151.344L238.866 166.495L251.803 179.482L264.74 194.633L273.365 209.783L277.678 220.605V233.592V246.578L273.365 259.565L266.897 272.551L251.803 292.031L241.022 309.346L236.71 326.662V346.141L247.491 367.785L258.272 374.279L279.834 380.772H290.615L301.396 374.279L310.021 363.457L316.489 352.635L320.802 333.155V322.333L322.958 305.018L327.27 285.538L333.739 268.223C335.895 263.172 340.639 252.206 342.364 248.743C344.088 245.28 347.395 237.199 348.832 233.592L353.145 216.277L357.457 201.126L359.613 183.811V172.988L355.301 153.509L348.832 138.358L338.051 127.536L325.114 116.714L310.021 110.221L292.771 103.727Z" stroke="#4FC4DD" stroke-width="3"/>
<path d="M241.022 51.7814L234.554 60.4391H232.397H223.773L215.148 56.1103L208.679 45.2882V14.9865L212.992 8.49323L219.46 2H225.929L232.397 4.16441L236.71 8.49323L243.178 19.3153V34.4662L241.022 51.7814Z" stroke="#4FC4DD" stroke-width="3"/>
<path d="M290.615 17.1509L277.678 8.49323H273.365L264.74 19.3153V32.3018V43.1238L271.209 51.7814L279.834 58.2747L288.459 53.9459L294.927 40.9594V27.9729L290.615 17.1509Z" stroke="#4FC4DD" stroke-width="3"/>
<path d="M325.114 32.3018L316.489 25.8085L307.864 27.9729L303.552 34.4662L305.708 45.2882L310.021 53.9459L316.489 58.2747L320.802 53.9459L325.114 47.4526V32.3018Z" stroke="#4FC4DD" stroke-width="3"/>
<path d="M353.145 56.1103L346.676 49.617L335.895 51.7814L333.739 64.7679L335.895 73.4256L344.52 75.59L350.988 66.9323L353.145 56.1103Z" stroke="#4FC4DD" stroke-width="3"/>
<path d="M374.706 82.0832L370.394 73.4256L363.925 71.2611L357.457 86.412L359.613 95.0697L370.394 99.3985L374.706 82.0832Z" stroke="#4FC4DD" stroke-width="3"/>
<path d="M103.025 376.443H96.5569L92.2445 378.607H85.7759L79.3073 376.443L72.8387 372.114L66.3701 365.621L59.9015 354.799L57.7453 346.141L55.5891 335.319V322.333L53.4329 305.017L51.2767 289.867L44.8081 272.551L40.4957 259.565L36.1833 248.743L27.5586 231.428L21.09 214.112L16.7776 194.633V181.646V164.331L21.09 147.016L29.7148 134.029L38.3395 123.207L51.2767 114.549L59.9015 110.221L77.1511 103.727L90.0883 101.563L103.025 99.3985H115.963L124.587 101.563L135.368 103.727L139.681 108.056L146.149 116.714L148.306 125.371V134.029L146.149 144.851L143.993 151.344L139.681 160.002L133.212 166.495L124.587 175.153L115.963 185.975L109.494 192.468L100.869 203.29L96.5569 220.605L94.4007 229.263V240.085L96.5569 248.743L100.869 261.729L105.182 270.387L111.65 279.045L122.431 294.195L128.9 302.853L133.212 311.511L135.368 324.497V337.484L133.212 350.47L128.9 359.128L126.744 361.292L124.587 363.457L122.431 365.621L120.275 367.785L118.119 369.95L115.963 372.114L111.65 374.279L107.338 376.443H103.025Z" fill="#4FC4DD"/>
<path d="M156.93 53.9459L152.618 58.2747L150.462 60.4391L146.149 62.6035L141.837 64.7679L137.525 62.6035L135.368 60.4391L133.212 56.1103L131.056 51.7814L128.9 43.1238V36.6306V30.1373L131.056 21.4797L133.212 17.1509L135.368 12.8221L139.681 8.49323L146.149 4.16441L150.462 2L154.774 4.16441L159.087 8.49323L163.399 17.1509L165.555 23.6441V30.1373V34.4662L163.399 43.1238L159.087 49.617L156.93 53.9459Z" fill="#4FC4DD"/>
<path d="M100.869 12.8221L96.5569 10.6576H92.2445L90.0883 12.8221L87.9321 14.9865L85.7759 17.1509L83.6197 21.4797L81.4635 25.8085V30.1373V34.4662V38.795V43.1238L83.6197 47.4526L85.7759 51.7814L90.0883 53.9459L94.4007 56.1103L98.7131 53.9459L100.869 51.7814L103.025 49.617L105.182 47.4526L107.338 43.1238V38.795V34.4662V25.8085V21.4797L105.182 17.1509L103.025 14.9865L100.869 12.8221Z" fill="#4FC4DD"/>
<path d="M62.0577 53.9459L57.7453 56.1103H55.5891L53.4329 53.9459L51.2767 49.617L49.1205 45.2882V38.795V34.4662L53.4329 30.1373L57.7453 27.9729H62.0577L66.3701 32.3017L68.5263 38.795V45.2882L66.3701 49.617L62.0577 53.9459Z" fill="#4FC4DD"/>
<path d="M34.0272 56.1103L29.7148 51.7814H27.5586L25.4024 53.9459V58.2747V62.6035L27.5586 66.9323L29.7148 69.0967L31.871 71.2611H34.0272L36.1833 66.9323V62.6035L34.0272 56.1103Z" fill="#4FC4DD"/>
<path d="M8.15279 77.7544L3.8404 75.59L1.6842 77.7544V82.0832V86.412V90.7408L5.9966 95.0697H10.309L12.4652 92.9052V86.412V82.0832L8.15279 77.7544Z" fill="#4FC4DD"/>
<path d="M103.025 376.443H96.5569L92.2445 378.607H85.7759L79.3073 376.443L72.8387 372.114L66.3701 365.621L59.9015 354.799L57.7453 346.141L55.5891 335.319V322.333L53.4329 305.017L51.2767 289.867L44.8081 272.551L40.4957 259.565L36.1833 248.743L27.5586 231.428L21.09 214.112L16.7776 194.633V181.646V164.331L21.09 147.016L29.7148 134.029L38.3395 123.207L51.2767 114.549L59.9015 110.221L77.1511 103.727L90.0883 101.563L103.025 99.3985H115.963L124.587 101.563L135.368 103.727L139.681 108.056L146.149 116.714L148.306 125.371V134.029L146.149 144.851L143.993 151.344L139.681 160.002L133.212 166.495L124.587 175.153L115.963 185.975L109.494 192.468L100.869 203.29L96.5569 220.605L94.4007 229.263V240.085L96.5569 248.743L100.869 261.729L105.182 270.387L111.65 279.045L122.431 294.195L128.9 302.853L133.212 311.511L135.368 324.497V337.484L133.212 350.47L128.9 359.128L126.744 361.292L124.587 363.457L122.431 365.621L120.275 367.785L118.119 369.95L115.963 372.114L111.65 374.279L107.338 376.443H103.025Z" stroke="#4FC4DD" stroke-width="3"/>
<path d="M156.93 53.9459L152.618 58.2747L150.462 60.4391L146.149 62.6035L141.837 64.7679L137.525 62.6035L135.368 60.4391L133.212 56.1103L131.056 51.7814L128.9 43.1238V36.6306V30.1373L131.056 21.4797L133.212 17.1509L135.368 12.8221L139.681 8.49323L146.149 4.16441L150.462 2L154.774 4.16441L159.087 8.49323L163.399 17.1509L165.555 23.6441V30.1373V34.4662L163.399 43.1238L159.087 49.617L156.93 53.9459Z" stroke="#4FC4DD" stroke-width="3"/>
<path d="M100.869 12.8221L96.5569 10.6576H92.2445L90.0883 12.8221L87.9321 14.9865L85.7759 17.1509L83.6197 21.4797L81.4635 25.8085V30.1373V34.4662V38.795V43.1238L83.6197 47.4526L85.7759 51.7814L90.0883 53.9459L94.4007 56.1103L98.7131 53.9459L100.869 51.7814L103.025 49.617L105.182 47.4526L107.338 43.1238V38.795V34.4662V25.8085V21.4797L105.182 17.1509L103.025 14.9865L100.869 12.8221Z" stroke="#4FC4DD" stroke-width="3"/>
<path d="M62.0577 53.9459L57.7453 56.1103H55.5891L53.4329 53.9459L51.2767 49.617L49.1205 45.2882V38.795V34.4662L53.4329 30.1373L57.7453 27.9729H62.0577L66.3701 32.3017L68.5263 38.795V45.2882L66.3701 49.617L62.0577 53.9459Z" stroke="#4FC4DD" stroke-width="3"/>
<path d="M34.0272 56.1103L29.7148 51.7814H27.5586L25.4024 53.9459V58.2747V62.6035L27.5586 66.9323L29.7148 69.0967L31.871 71.2611H34.0272L36.1833 66.9323V62.6035L34.0272 56.1103Z" stroke="#4FC4DD" stroke-width="3"/>
<path d="M8.15279 77.7544L3.8404 75.59L1.6842 77.7544V82.0832V86.412V90.7408L5.9966 95.0697H10.309L12.4652 92.9052V86.412V82.0832L8.15279 77.7544Z" stroke="#4FC4DD" stroke-width="3"/>
</svg>
